<svg width="495" height="495" viewBox="0 0 495 495" fill="none" xmlns="http://www.w3.org/2000/svg">
<g filter="url(#filter0_d_1195_2)">
<rect x="4" width="487" height="487" rx="243.5" fill="#06081A"/>
<path d="M181.792 260.709L116.278 196.936C104.572 185.47 98 169.944 98 153.76C98 137.575 104.572 122.05 116.278 110.583L226.041 217.38L181.792 260.709ZM287.802 233.095L264.817 255.522L372.39 360.488L350.344 382L242.771 277.034L135.197 382L113.151 360.488L265.755 211.583C254.654 188.24 262.472 155.438 287.332 131.18C317.197 101.887 360.038 96.3944 382.866 118.669C405.851 141.097 400.222 182.9 370.201 212.04C345.341 236.298 311.724 243.927 287.802 233.095Z" fill="#00EA85"/>
</g>
<defs>
<filter id="filter0_d_1195_2" x="0" y="0" width="495" height="495" filterUnits="userSpaceOnUse" color-interpolation-filters="sRGB">
<feFlood flood-opacity="0" result="BackgroundImageFix"/>
<feColorMatrix in="SourceAlpha" type="matrix" values="0 0 0 0 0 0 0 0 0 0 0 0 0 0 0 0 0 0 127 0" result="hardAlpha"/>
<feOffset dy="4"/>
<feGaussianBlur stdDeviation="2"/>
<feComposite in2="hardAlpha" operator="out"/>
<feColorMatrix type="matrix" values="0 0 0 0 0 0 0 0 0 0 0 0 0 0 0 0 0 0 0.25 0"/>
<feBlend mode="normal" in2="BackgroundImageFix" result="effect1_dropShadow_1195_2"/>
<feBlend mode="normal" in="SourceGraphic" in2="effect1_dropShadow_1195_2" result="shape"/>
</filter>
</defs>
</svg>
